<svg width="289" height="122" viewBox="0 0 289 122" fill="none" xmlns="http://www.w3.org/2000/svg">
<path d="M49.88 121.08C42.3707 121.08 36.3973 119.203 31.96 115.448C27.5227 111.779 25.6027 106.573 26.2 99.832L28.12 78.84C28.5467 74.3173 27.9067 71.0747 26.2 69.112C24.4933 67.064 20.8667 66.04 15.32 66.04H0.6V55.8H15.32C20.8667 55.8 24.4933 54.8187 26.2 52.856C27.9067 50.808 28.5467 47.5227 28.12 43L26.2 22.008C25.6027 15.2667 27.5227 10.0613 31.96 6.392C36.3973 2.63733 42.3707 0.759995 49.88 0.759995H55.64V11H49.88C45.8693 11 42.7547 11.9387 40.536 13.816C38.3173 15.608 37.3787 18.3387 37.72 22.008L39.64 43C40.0667 47.864 39.0853 51.832 36.696 54.904C34.392 57.8907 31.1067 59.7253 26.84 60.408C31.1067 61.176 34.392 63.224 36.696 66.552C39.0853 69.88 40.0667 73.976 39.64 78.84L37.72 99.832C37.3787 103.501 38.3173 106.232 40.536 108.024C42.7547 109.901 45.8693 110.84 49.88 110.84H55.64V121.08H49.88ZM79.526 107V13.56H103.718C109.777 13.56 114.982 14.712 119.334 17.016C123.771 19.32 127.185 22.5627 129.574 26.744C132.049 30.9253 133.286 35.8747 133.286 41.592V78.84C133.286 84.5573 132.049 89.5493 129.574 93.816C127.185 97.9973 123.771 101.24 119.334 103.544C114.982 105.848 109.777 107 103.718 107H79.526ZM91.046 96.76H103.718C109.35 96.76 113.745 95.1813 116.902 92.024C120.145 88.8667 121.766 84.472 121.766 78.84V41.592C121.766 36.0453 120.145 31.6933 116.902 28.536C113.745 25.3787 109.35 23.8 103.718 23.8H91.046V96.76ZM157.94 107V96.504H177.012V24.056H157.94V13.56H207.86V24.056H188.788V96.504H207.86V107H157.94ZM233.41 121.08V110.84H239.17C243.181 110.84 246.295 109.901 248.514 108.024C250.733 106.232 251.671 103.501 251.33 99.832L249.41 78.84C248.983 73.976 249.922 69.88 252.226 66.552C254.615 63.1387 257.943 61.048 262.21 60.28C257.943 59.5973 254.615 57.7627 252.226 54.776C249.922 51.7893 248.983 47.864 249.41 43L251.33 22.008C251.671 18.3387 250.733 15.608 248.514 13.816C246.295 11.9387 243.181 11 239.17 11H233.41V0.759995H239.17C246.765 0.759995 252.781 2.63733 257.218 6.392C261.655 10.0613 263.533 15.2667 262.85 22.008L260.93 43C260.589 47.5227 261.229 50.808 262.85 52.856C264.557 54.8187 268.183 55.8 273.73 55.8H288.45V66.04H273.73C268.269 66.04 264.685 67.064 262.978 69.112C261.271 71.0747 260.589 74.3173 260.93 78.84L262.85 99.832C263.533 106.573 261.655 111.779 257.218 115.448C252.781 119.203 246.765 121.08 239.17 121.08H233.41Z" fill="#4F46E5"/>
</svg>
