<svg width="1440" height="1440" viewBox="0 0 1440 1440" fill="none" xmlns="http://www.w3.org/2000/svg">
<g clip-path="url(#clip0_1_5)">
<path d="M0 1440H1440V-4.29153e-05H0V1440Z" fill="url(#paint0_linear_1_5)"/>
<path d="M1115.63 721.361C1116.82 716.689 1117.26 711.697 1116.65 706.457L1086.28 448.749C1083.54 425.467 1056.62 413.886 1037.83 427.901L930.382 508.051C871.033 482.253 801.213 467.367 726.481 467.367C654.65 467.367 587.365 481.125 529.548 505.099L415.126 419.751C396.336 405.735 369.418 417.317 366.676 440.598L336.313 698.306C335.582 704.506 336.285 710.378 338.032 715.747C336.701 725.039 336.02 734.465 336.02 744.005C336.02 896.787 510.834 1020.64 726.481 1020.64C942.126 1020.64 1116.94 896.787 1116.94 744.005C1116.94 736.381 1116.49 728.83 1115.63 721.361Z" fill="black"/>
<path d="M589.602 685.61C589.602 720.225 561.542 748.286 526.928 748.286C492.312 748.286 464.252 720.225 464.252 685.61C464.252 650.995 492.312 622.935 526.928 622.935C561.542 622.935 589.602 650.995 589.602 685.61Z" fill="white"/>
<path d="M943.369 748.676L904.181 709.489L865.723 747.948L843.122 725.348L881.581 686.889L842.39 647.697L867.543 622.545L906.735 661.737L945.194 623.273L967.794 645.873L929.337 684.338L968.522 723.524L943.369 748.676Z" fill="white"/>
</g>
<defs>
<linearGradient id="paint0_linear_1_5" x1="-46.6667" y1="716.667" x2="1469.33" y2="716.667" gradientUnits="userSpaceOnUse">
<stop stop-color="#EE0000"/>
<stop offset="1" stop-color="#BE1E2D"/>
</linearGradient>
<clipPath id="clip0_1_5">
<rect width="1440" height="1440" rx="720" fill="white"/>
</clipPath>
</defs>
</svg>
